<?xml version="1.0" encoding="UTF-8"?>
<svg version="1.1" xmlns="http://www.w3.org/2000/svg" width="500" height="500">
<path d="M0 0 C165 0 330 0 500 0 C500 165 500 330 500 500 C335 500 170 500 0 500 C0 335 0 170 0 0 Z " fill="#FDFEFE" transform="translate(0,0)"/>
<path d="M0 0 C115.17 0 230.34 0 349 0 C349 3.3 349 6.6 349 10 C237.46 10 125.92 10 11 10 C11 121.54 11 233.08 11 348 C7.37 348 3.74 348 0 348 C0 233.16 0 118.32 0 0 Z " fill="#242E3B" transform="translate(18,24)"/>
<path d="M0 0 C3.3 0 6.6 0 10 0 C10 114.84 10 229.68 10 348 C-104.84 348 -219.68 348 -338 348 C-338 344.7 -338 341.4 -338 338 C-226.46 338 -114.92 338 0 338 C0 226.46 0 114.92 0 0 Z " fill="#1E2836" transform="translate(469,131)"/>
<path d="M0 0 C0.95900208 -0.00960754 1.91800415 -0.01921509 2.90606689 -0.02911377 C3.95381287 -0.03336365 5.00155884 -0.03761353 6.08105469 -0.04199219 C7.697388 -0.0505423 7.697388 -0.0505423 9.34637451 -0.05926514 C11.63976047 -0.06874006 13.93316019 -0.07525894 16.2265625 -0.07910156 C19.69654191 -0.08871103 23.16590445 -0.11967013 26.63574219 -0.15136719 C57.7038972 -0.30166797 57.7038972 -0.30166797 70.25292969 10.53613281 C78.87360864 20.59359159 81.75788094 29.84379149 80.75732422 43.15527344 C79.62563037 52.07849481 75.39350068 60.37578212 68.50292969 66.16113281 C61.03969439 71.16113281 61.03969439 71.16113281 57.50292969 71.16113281 C58.49971778 73.43341621 59.49997495 75.7040678 60.50292969 77.97363281 C60.83744141 78.7310376 61.17195313 79.48844238 61.51660156 80.26879883 C64.15926981 86.21762574 66.86697484 92.13473033 69.59667969 98.04394531 C70.32721108 99.628796 71.05767932 101.21367579 71.78808594 102.79858398 C72.89521237 105.20062676 74.00433163 107.60164745 75.11962891 109.99990845 C76.17948804 112.2792359 77.23241168 114.56165676 78.28417969 116.84472656 C78.60882202 117.53780914 78.93346436 118.23089172 79.26794434 118.94497681 C80.60755974 121.86711245 81.50292969 123.90634521 81.50292969 127.16113281 C73.25292969 127.16113281 65.00292969 127.16113281 56.50292969 127.16113281 C50.73098805 115.77324796 45.27393369 104.28791926 40.00292969 92.66113281 C39.26882572 91.04772821 38.53445187 89.43444639 37.79980469 87.82128906 C36.03108296 83.9359705 34.26595961 80.04903723 32.50292969 76.16113281 C25.57292969 75.66613281 25.57292969 75.66613281 18.50292969 75.16113281 C18.50292969 92.32113281 18.50292969 109.48113281 18.50292969 127.16113281 C10.91292969 127.16113281 3.32292969 127.16113281 -4.49707031 127.16113281 C-5.49707031 126.16113281 -5.49707031 126.16113281 -5.61732483 123.23155212 C-5.61510422 121.91917068 -5.61288361 120.60678925 -5.6105957 119.25463867 C-5.61074173 118.53272842 -5.61088776 117.81081818 -5.61103821 117.06703186 C-5.610339 114.66998334 -5.60254626 112.27301159 -5.59472656 109.87597656 C-5.59286241 108.21830793 -5.59143849 106.56063874 -5.59043884 104.90296936 C-5.58661344 100.53159067 -5.57678297 96.160245 -5.56573486 91.78887939 C-5.55552123 87.3315882 -5.55094133 82.8742917 -5.54589844 78.41699219 C-5.53516071 69.66502388 -5.51808403 60.91308245 -5.49707031 52.16113281 C-4.8714621 52.15526657 -4.24585388 52.14940033 -3.60128784 52.14335632 C2.92040052 52.07933553 9.44159939 51.99489309 15.96289062 51.89868164 C18.39544209 51.86546335 20.82807006 51.83742182 23.26074219 51.81469727 C26.76107327 51.78109523 30.26070524 51.72877447 33.76074219 51.67285156 C34.84533722 51.66646164 35.92993225 51.66007172 37.0473938 51.65348816 C42.58427256 51.54610299 46.75313695 51.34114488 51.50292969 48.16113281 C55.11073854 44.18010236 55.82962255 40.50723292 55.70214844 35.15332031 C55.38533664 31.9852023 54.66684665 30.5217695 52.50292969 28.16113281 C45.84165767 24.10449469 39.55395552 23.56092281 31.90527344 23.55175781 C30.83040176 23.53522156 29.75553009 23.5186853 28.64808655 23.50164795 C25.2454747 23.45341447 21.843309 23.43185123 18.44042969 23.41113281 C16.12074608 23.38295262 13.80108303 23.35302235 11.48144531 23.32128906 C5.82202044 23.2476623 0.16271977 23.19587576 -5.49707031 23.16113281 C-5.52594543 19.51531594 -5.54382616 15.86952818 -5.55957031 12.22363281 C-5.56794922 11.18271484 -5.57632813 10.14179688 -5.58496094 9.06933594 C-5.58979492 7.58530273 -5.58979492 7.58530273 -5.59472656 6.07128906 C-5.59996338 5.15484619 -5.6052002 4.23840332 -5.6105957 3.29418945 C-5.40192858 -0.62650878 -3.44081373 0.02774388 0 0 Z " fill="#212B39" transform="translate(222.4970703125,266.8388671875)"/>
<path d="M0 0 C8.3680317 6.84657139 14.77644848 16.79178574 16.0625 27.6875 C16.9964086 42.39656047 14.60508224 54.83866454 5.50390625 66.72265625 C-2.40928082 75.3569491 -12.61161186 79.00696764 -23.99609375 79.9375 C-34.47013207 80.33986402 -44.92060788 78.35461232 -53.1015625 71.43359375 C-53.70742187 70.85738281 -54.31328125 70.28117187 -54.9375 69.6875 C-55.62585938 69.03910156 -56.31421875 68.39070313 -57.0234375 67.72265625 C-66.59987074 57.87922208 -69.2266576 46.33039541 -69.25439453 32.94116211 C-69.02817263 20.69864724 -63.82992363 10.84626938 -55.6875 1.9375 C-40.50723969 -12.50552912 -16.3208147 -11.65772478 0 0 Z " fill="#37D39A" transform="translate(278.9375,147.3125)"/>
<path d="M0 0 C7.59 0 15.18 0 23 0 C23.04521842 12.00479614 23.08189759 24.00953553 23.10362434 36.01439762 C23.11405307 41.58897635 23.12819573 47.1634937 23.15087891 52.73803711 C23.17263963 58.11967508 23.18457549 63.50125408 23.18975449 68.88293266 C23.19344443 70.93418748 23.20064995 72.98543913 23.21146011 75.03666878 C23.22601783 77.91392063 23.22797614 80.79093002 23.22705078 83.66821289 C23.23424133 84.51266464 23.24143188 85.35711639 23.24884033 86.22715759 C23.21267287 96.64775876 19.6165837 106.39326619 12.5625 114.1875 C4.1403374 122.00694664 -6.63986978 126.16133267 -18 127 C-18.92941406 127.08121094 -19.85882813 127.16242188 -20.81640625 127.24609375 C-34.00189072 127.83809509 -47.78439872 124.56357335 -58 116 C-66.75347084 107.75096646 -71.55532078 98.74192132 -72.17242432 86.61032104 C-72.23091703 82.56017425 -72.22537578 78.51506609 -72.1953125 74.46484375 C-72.19157537 72.97555228 -72.18873171 71.48625832 -72.18673706 69.9969635 C-72.17915567 66.10569287 -72.15955544 62.21457511 -72.1373291 58.32336426 C-72.11675127 54.34124824 -72.10770999 50.35910716 -72.09765625 46.37695312 C-72.07630347 38.58455815 -72.04116721 30.7923201 -72 23 C-64.08 23 -56.16 23 -48 23 C-47.98541748 24.8665625 -47.97083496 26.733125 -47.95581055 28.65625 C-47.90401062 34.84701023 -47.83868527 41.03751428 -47.76428509 47.2280426 C-47.71969759 50.97866639 -47.68041661 54.72918446 -47.65356445 58.47998047 C-47.62741449 62.10471364 -47.58693152 65.72903744 -47.53681374 69.35351562 C-47.52022353 70.73123046 -47.50866064 72.10901597 -47.50238609 73.48681641 C-47.56110003 85.44788747 -47.56110003 85.44788747 -42.45703125 95.98828125 C-36.02579907 101.16687438 -30.00571031 103.64401055 -21.65625 103.34765625 C-15.48024476 102.53932615 -9.12626004 100.8540337 -4.9375 96 C-4.298125 95.01 -3.65875 94.02 -3 93 C-2.6366153 92.45599548 -2.27323059 91.91199097 -1.89883423 91.35150146 C-0.5283828 87.76617011 -0.6911568 84.16360853 -0.68115234 80.37597656 C-0.67110672 79.50732468 -0.6610611 78.63867279 -0.65071106 77.74369812 C-0.61985057 74.87601373 -0.60283592 72.00842283 -0.5859375 69.140625 C-0.56722816 67.15093174 -0.54765493 65.16124644 -0.5272522 63.17156982 C-0.47590028 57.9372018 -0.43629087 52.70280805 -0.39910889 47.46832275 C-0.35908847 42.12595233 -0.30798717 36.78368924 -0.2578125 31.44140625 C-0.16101688 20.96100535 -0.07764781 10.48056027 0 0 Z " fill="#202A38" transform="translate(189,267)"/>
<path d="M0 0 C5.05059066 -0.09257702 10.09815787 -0.17197871 15.14892578 -0.21972656 C16.86159317 -0.23965999 18.57419414 -0.26681705 20.28662109 -0.30175781 C31.74847179 -0.52952106 41.70635996 -0.18996343 51.9375 5.6875 C58.73760904 13.31186468 59.89937558 20.04238681 59.4140625 30.0234375 C58.5985226 37.85569805 55.73330781 41.90653644 49.78125 46.87109375 C47.85531803 48.09169537 46.20766758 48.49802388 44 49 C47.83013806 58.40239492 52.00664545 67.60861353 56.33398438 76.79101562 C56.80771484 77.81001953 57.28144531 78.82902344 57.76953125 79.87890625 C58.19854736 80.7922876 58.62756348 81.70566895 59.06958008 82.64672852 C60 85 60 85 60 88 C54.06 88 48.12 88 42 88 C39.86027669 83.33845993 37.72286625 78.67600171 35.59130859 74.01074219 C34.86512378 72.42320795 34.13758924 70.83629041 33.40869141 69.25 C32.36267346 66.97295413 31.32149146 64.69375197 30.28125 62.4140625 C29.78908997 61.34679428 29.78908997 61.34679428 29.2869873 60.25796509 C27 55.22774341 27 55.22774341 27 53 C23.7 53 20.4 53 17 53 C17 64.55 17 76.1 17 88 C11.39 88 5.78 88 0 88 C0 70.84 0 53.68 0 36 C17.1875 35.6875 17.1875 35.6875 22.58666992 35.61206055 C24.00962924 35.57975467 25.43256483 35.54637869 26.85546875 35.51171875 C27.58560181 35.50547485 28.31573486 35.49923096 29.06799316 35.49279785 C33.950037 35.35568513 37.47885494 34.52114506 41 31 C41.35457434 28.77550996 41.35457434 28.77550996 41.4375 26.1875 C41.52837891 24.87845703 41.52837891 24.87845703 41.62109375 23.54296875 C41.20364629 20.74696069 41.20364629 20.74696069 38.47631836 18.87915039 C34.45461204 16.70518638 31.21638568 16.39808193 26.7578125 16.390625 C25.60525467 16.36582062 25.60525467 16.36582062 24.42941284 16.34051514 C21.99452561 16.29224065 19.56026189 16.27071129 17.125 16.25 C15.46611481 16.22182292 13.80725841 16.19189306 12.1484375 16.16015625 C8.09867731 16.08321081 4.05085107 16.04250631 0 16 C0 10.72 0 5.44 0 0 Z " fill="#36D39A" transform="translate(299,139)"/>
<path d="M0 0 C2.64 0 5.28 0 8 0 C8 66.33 8 132.66 8 201 C-59.65 201 -127.3 201 -197 201 C-197 198.36 -197 195.72 -197 193 C-131.99 193 -66.98 193 0 193 C0 129.31 0 65.62 0 0 Z " fill="#34D399" transform="translate(442,250)"/>
<path d="M0 0 C67.65 0 135.3 0 205 0 C205 2.64 205 5.28 205 8 C139.99 8 74.98 8 8 8 C8 71.69 8 135.38 8 201 C5.36 201 2.72 201 0 201 C0 134.67 0 68.34 0 0 Z " fill="#34D399" transform="translate(45,49)"/>
<path d="M0 0 C5.61 0 11.22 0 17 0 C17 29.04 17 58.08 17 88 C11.39 88 5.78 88 0 88 C0 82.39 0 76.78 0 71 C-11.22 71 -22.44 71 -34 71 C-34 76.61 -34 82.22 -34 88 C-36.619375 88.020625 -39.23875 88.04125 -41.9375 88.0625 C-42.7637085 88.071604 -43.58991699 88.08070801 -44.44116211 88.09008789 C-46.29433759 88.09723945 -48.14749308 88.0502852 -50 88 C-51 87 -51 87 -51.11352539 83.94897461 C-51.11327443 82.60008731 -51.10771815 81.25119355 -51.09765625 79.90234375 C-51.09515869 78.60546631 -51.09266113 77.30858887 -51.09008789 75.97241211 C-51.08098389 74.31089111 -51.07187988 72.64937012 -51.0625 70.9375 C-51.041875 65.678125 -51.02125 60.41875 -51 55 C-34.17 55 -17.34 55 0 55 C0 36.85 0 18.7 0 0 Z " fill="#37D39A" transform="translate(190,139)"/>
<path d="M0 0 C4.4203015 3.42036015 7.38605162 7.30260695 9.03515625 12.6796875 C9.32325304 15.44730581 9.23467407 17.88643797 9.03515625 20.6796875 C4.08515625 20.6796875 -0.86484375 20.6796875 -5.96484375 20.6796875 C-6.95484375 18.6996875 -7.94484375 16.7196875 -8.96484375 14.6796875 C-12.43179652 11.7080137 -15.58346085 11.12041224 -20.02734375 11.34765625 C-23.47888901 11.9391509 -24.84523519 12.89770127 -26.96484375 15.6796875 C-27.66507961 19.13494971 -27.89497728 22.2655503 -26.96484375 25.6796875 C-23.47255149 29.33677032 -20.72866871 30.17693571 -15.77734375 30.6171875 C-7.78893749 31.66543991 -1.11973715 33.9885887 4.47265625 39.9921875 C9.11615378 46.10897603 10.69605473 52.21432477 10.44140625 59.875 C9.31651438 67.64108044 5.19196907 73.45367503 -0.85546875 78.2734375 C-6.75335191 82.2053596 -10.74916508 82.6796875 -17.96484375 82.6796875 C-17.96484375 77.3996875 -17.96484375 72.1196875 -17.96484375 66.6796875 C-14.49984375 65.6896875 -14.49984375 65.6896875 -10.96484375 64.6796875 C-8.77097831 62.83967133 -8.11485464 61.59100364 -7.65234375 58.78125 C-7.45086162 55.39383165 -7.62234674 53.27127324 -9.33984375 50.3046875 C-12.58500666 48.29577713 -15.45009219 47.86531111 -19.1796875 47.22265625 C-28.79667148 45.34781646 -36.27319079 41.71371142 -42.34375 33.90625 C-45.92724748 27.98786044 -45.87455298 21.37772364 -44.96484375 14.6796875 C-42.50048717 6.5030205 -37.38463408 0.90849876 -30.12890625 -3.4140625 C-20.02159031 -8.01992799 -8.89954452 -5.98021083 0 0 Z " fill="#38D39B" transform="translate(126.96484375,144.3203125)"/>
<path d="M0 0 C5.65143238 3.96530544 9.80069752 9.8637657 11.453125 16.58984375 C13.12595294 26.89094209 12.50816377 35.66320534 6.54296875 44.29296875 C2.9735177 48.82894676 -1.32212366 52.55451789 -7.11547852 53.74633789 C-9.25291976 53.93950596 -11.33079647 53.98936736 -13.4765625 53.95703125 C-14.59756348 53.94663818 -14.59756348 53.94663818 -15.74121094 53.93603516 C-22.19997256 53.68156501 -26.44860594 51.92182551 -31.1015625 47.33203125 C-31.86339844 46.61273438 -31.86339844 46.61273438 -32.640625 45.87890625 C-39.00926036 39.10059259 -39.61572973 31.66745238 -39.37890625 22.80078125 C-38.65567608 13.75531091 -35.99044189 7.38420464 -29.1015625 1.33203125 C-21.15030428 -4.97905711 -8.73458212 -4.59458502 0 0 Z " fill="#FCFEFD" transform="translate(266.1015625,157.66796875)"/>
<path d="M0 0 C7.59 0 15.18 0 23 0 C24.69668207 1.69668207 24.11968993 3.81132018 24.12442017 6.07440186 C24.12082489 6.80016418 24.11722961 7.52592651 24.11352539 8.27368164 C24.11367142 9.03460617 24.11381744 9.7955307 24.1139679 10.57951355 C24.11326862 13.10642298 24.10547555 15.63325962 24.09765625 18.16015625 C24.09579212 19.9075059 24.0943682 21.65485607 24.09336853 23.40220642 C24.08954293 28.01031934 24.07971229 32.61840095 24.06866455 37.22650146 C24.05845134 41.92508521 24.0538711 46.62367399 24.04882812 51.32226562 C24.03809005 60.54819308 24.02049292 69.77408904 24 79 C16.08 79 8.16 79 0 79 C0 52.93 0 26.86 0 0 Z " fill="#1F2937" transform="translate(309,267)"/>
<path d="M0 0 C8.97921106 -0.02255299 17.95840345 -0.04091622 26.93763638 -0.05181217 C31.10662828 -0.05704051 35.27559987 -0.06413726 39.44458008 -0.07543945 C43.46457686 -0.08627008 47.48455405 -0.09227721 51.50456429 -0.09487724 C53.04162975 -0.09673118 54.57869409 -0.10035119 56.11575127 -0.10573006 C58.26135487 -0.11294284 60.40687655 -0.11399084 62.55249023 -0.11352539 C63.77604721 -0.115746 64.99960419 -0.11796661 66.26023865 -0.12025452 C69 0 69 0 70 1 C70.0991657 2.62257544 70.13079777 4.24939831 70.1328125 5.875 C70.13410156 6.85984375 70.13539063 7.8446875 70.13671875 8.859375 C70.13285156 9.89578125 70.12898438 10.9321875 70.125 12 C70.12886719 13.03640625 70.13273437 14.0728125 70.13671875 15.140625 C70.13542969 16.12546875 70.13414062 17.1103125 70.1328125 18.125 C70.13168457 19.03507812 70.13055664 19.94515625 70.12939453 20.8828125 C70 23 70 23 69 24 C66.85256451 24.09425595 64.70198974 24.11742648 62.55249023 24.11352539 C61.54277664 24.11374443 61.54277664 24.11374443 60.51266479 24.1139679 C58.27794216 24.11326878 56.0433019 24.10547652 53.80859375 24.09765625 C52.26302638 24.09579206 50.71745843 24.09436816 49.17189026 24.09336853 C45.09642923 24.0895434 41.02100363 24.07971317 36.94555664 24.06866455 C32.78988118 24.05845032 28.63420001 24.05387089 24.47851562 24.04882812 C16.31899232 24.03809089 8.15950464 24.02049414 0 24 C0 16.08 0 8.16 0 0 Z " fill="#232D3A" transform="translate(309,370)"/>
<path d="M0 0 C5.61 0 11.22 0 17 0 C17 18.48 17 36.96 17 56 C11.39 56 5.78 56 0 56 C0 37.52 0 19.04 0 0 Z " fill="#38D49B" transform="translate(380,171)"/>
<path d="M0 0 C17.49 0 34.98 0 53 0 C53 4.95 53 9.9 53 15 C35.51 15 18.02 15 0 15 C0 10.05 0 5.1 0 0 Z " fill="#35D399" transform="translate(362,139)"/>
<path d="M0 0 C5.28 0 10.56 0 16 0 C16 12.54 16 25.08 16 38 C10.39 38 4.78 38 -1 38 C-1.02290839 32.74888804 -1.04283563 27.49794822 -1.05493164 22.24682617 C-1.05997218 20.45905979 -1.06680454 18.67129755 -1.07543945 16.88354492 C-1.0875173 14.31948832 -1.09323094 11.75548603 -1.09765625 9.19140625 C-1.10281754 8.3872377 -1.10797882 7.58306915 -1.11329651 6.75453186 C-1.11349215 4.83598285 -1.06201983 2.91754632 -1 1 C-0.67 0.67 -0.34 0.34 0 0 Z " fill="#39D49B" transform="translate(140,139)"/>
<path d="M0 0 C3.80470451 0.7133821 5.41196019 1.67868421 8 4.5625 C9.27176524 8.67703459 9.50686067 10.59101705 7.5 14.4375 C4.23718151 17.21089572 2.26438773 17.63731382 -2 17.5625 C-4.80189446 15.79608828 -6.51524911 14.53200178 -8 11.5625 C-8.54035146 7.50986402 -8.34199395 6.02519769 -5.875 2.6875 C-3 0.5625 -3 0.5625 0 0 Z " fill="#3DD59D" transform="translate(252,174.4375)"/>
</svg>
